<?xml version="1.0" encoding="UTF-8" standalone="no"?>
<!DOCTYPE svg PUBLIC "-//W3C//DTD SVG 1.1//EN" "http://www.w3.org/Graphics/SVG/1.1/DTD/svg11.dtd">
<svg width="100%" height="100%" viewBox="0 0 3000 457" version="1.1" xmlns="http://www.w3.org/2000/svg" xmlns:xlink="http://www.w3.org/1999/xlink" xml:space="preserve" xmlns:serif="http://www.serif.com/" style="fill-rule:evenodd;clip-rule:evenodd;stroke-linecap:round;stroke-linejoin:round;stroke-miterlimit:1.5;">
    <g transform="matrix(1,0,0,1,2364,-228)">
        <path d="M164.998,537.068C176.533,534.691 187.862,531.195 198.825,525.849C213.033,518.915 225.592,508.407 237.196,496.113C241.877,491.156 246.315,485.73 250.508,480L250.787,479.622C256.635,471.678 262.028,463.166 267.028,454.566C274.111,442.391 280.782,429.854 287.054,417L291.932,406.861C299.852,389.959 307.439,372.823 314.959,355.636L315.678,354C322.811,337.696 329.963,321.421 337.382,305.323C339.594,300.522 341.858,295.73 344.222,291L344.285,291C349.822,279.704 355.796,268.697 362.452,258.471C367.364,250.925 372.777,244.201 378.834,238.132C382.401,234.56 386.662,231.674 391.137,229.97L391.171,229.956C394.067,228.823 397.058,228.2 400,228.2C403.211,228.2 406.247,228.927 409.137,230.186L409.182,230.204C413.034,231.809 416.638,234.322 420.1,237.19C426.331,242.354 431.52,249.609 436.332,256.684C443.584,267.324 449.801,279.05 455.66,291L455.723,291C457.876,295.358 459.973,299.752 462.057,304.132C469.627,320.04 476.623,336.383 483.725,352.621L484.332,354L495.301,378.932C498.991,387.22 502.731,395.473 506.569,403.658C508.663,408.127 510.784,412.58 512.953,417L513.49,418.1C519.046,429.46 524.867,440.621 531.125,451.378C536.931,461.365 543.091,470.972 549.765,480L550.122,480.483C553.816,485.473 557.671,490.28 561.709,494.877C572.989,507.707 585.868,517.707 599.833,525.168C611.023,531.151 623.121,534.87 635.201,537.215C634.474,538.631 633.735,540.04 632.979,541.45C573.781,540.159 487.335,538.47 424.521,538.081C425.141,540.282 425.472,542.602 425.472,544.999C425.472,559.073 414.046,570.499 399.972,570.499C385.899,570.499 374.472,559.073 374.472,544.999C374.472,542.602 374.804,540.282 375.423,538.082C312.682,538.474 226.446,540.155 167.291,541.443C166.513,539.993 165.749,538.534 164.998,537.068Z" style="stroke:black;stroke-width:1px;"/>
    </g>
    <g transform="matrix(0.693749,0,0,0.693749,2034.53,-61.2842)">
        <path d="M164.998,537.068C176.533,534.691 187.862,531.195 198.825,525.849C213.033,518.915 225.592,508.407 237.196,496.113C241.877,491.156 246.315,485.73 250.508,480L250.787,479.622C256.635,471.678 262.028,463.166 267.028,454.566C274.111,442.391 280.782,429.854 287.054,417L291.932,406.861C299.852,389.959 307.439,372.823 314.959,355.636L315.678,354C322.811,337.696 329.963,321.421 337.382,305.323C339.594,300.522 341.858,295.73 344.222,291L344.285,291C349.822,279.704 355.796,268.697 362.452,258.471C367.364,250.925 372.777,244.201 378.834,238.132C382.401,234.56 386.662,231.674 391.137,229.97L391.171,229.956C394.067,228.823 397.058,228.2 400,228.2C403.211,228.2 406.247,228.927 409.137,230.186L409.182,230.204C413.034,231.809 416.638,234.322 420.1,237.19C426.331,242.354 431.52,249.609 436.332,256.684C443.584,267.324 449.801,279.05 455.66,291L455.723,291C457.876,295.358 459.973,299.752 462.057,304.132C469.627,320.04 476.623,336.383 483.725,352.621L484.332,354L495.301,378.932C498.991,387.22 502.731,395.473 506.569,403.658C508.663,408.127 510.784,412.58 512.953,417L513.49,418.1C519.046,429.46 524.867,440.621 531.125,451.378C536.931,461.365 543.091,470.972 549.765,480L550.122,480.483C553.816,485.473 557.671,490.28 561.709,494.877C572.989,507.707 585.868,517.707 599.833,525.168C611.023,531.151 623.121,534.87 635.201,537.215C634.474,538.631 633.735,540.04 632.979,541.45C573.781,540.159 487.335,538.47 424.521,538.081C425.141,540.282 425.472,542.602 425.472,544.999C425.472,559.073 414.046,570.499 399.972,570.499C385.899,570.499 374.472,559.073 374.472,544.999C374.472,542.602 374.804,540.282 375.423,538.082C312.682,538.474 226.446,540.155 167.291,541.443C166.513,539.993 165.749,538.534 164.998,537.068Z" style="stroke:black;stroke-width:1.44px;"/>
    </g>
    <g transform="matrix(0.693749,0,0,0.693749,1654.53,-61.2842)">
        <path d="M164.998,537.068C176.533,534.691 187.862,531.195 198.825,525.849C213.033,518.915 225.592,508.407 237.196,496.113C241.877,491.156 246.315,485.73 250.508,480L250.787,479.622C256.635,471.678 262.028,463.166 267.028,454.566C274.111,442.391 280.782,429.854 287.054,417L291.932,406.861C299.852,389.959 307.439,372.823 314.959,355.636L315.678,354C322.811,337.696 329.963,321.421 337.382,305.323C339.594,300.522 341.858,295.73 344.222,291L344.285,291C349.822,279.704 355.796,268.697 362.452,258.471C367.364,250.925 372.777,244.201 378.834,238.132C382.401,234.56 386.662,231.674 391.137,229.97L391.171,229.956C394.067,228.823 397.058,228.2 400,228.2C403.211,228.2 406.247,228.927 409.137,230.186L409.182,230.204C413.034,231.809 416.638,234.322 420.1,237.19C426.331,242.354 431.52,249.609 436.332,256.684C443.584,267.324 449.801,279.05 455.66,291L455.723,291C457.876,295.358 459.973,299.752 462.057,304.132C469.627,320.04 476.623,336.383 483.725,352.621L484.332,354L495.301,378.932C498.991,387.22 502.731,395.473 506.569,403.658C508.663,408.127 510.784,412.58 512.953,417L513.49,418.1C519.046,429.46 524.867,440.621 531.125,451.378C536.931,461.365 543.091,470.972 549.765,480L550.122,480.483C553.816,485.473 557.671,490.28 561.709,494.877C572.989,507.707 585.868,517.707 599.833,525.168C611.023,531.151 623.121,534.87 635.201,537.215C634.474,538.631 633.735,540.04 632.979,541.45C573.781,540.159 487.335,538.47 424.521,538.081C425.141,540.282 425.472,542.602 425.472,544.999C425.472,559.073 414.046,570.499 399.972,570.499C385.899,570.499 374.472,559.073 374.472,544.999C374.472,542.602 374.804,540.282 375.423,538.082C312.682,538.474 226.446,540.155 167.291,541.443C166.513,539.993 165.749,538.534 164.998,537.068Z" style="stroke:black;stroke-width:1.44px;"/>
    </g>
    <g transform="matrix(0.693749,0,0,0.693749,1274.53,-61.2842)">
        <path d="M164.998,537.068C176.533,534.691 187.862,531.195 198.825,525.849C213.033,518.915 225.592,508.407 237.196,496.113C241.877,491.156 246.315,485.73 250.508,480L250.787,479.622C256.635,471.678 262.028,463.166 267.028,454.566C274.111,442.391 280.782,429.854 287.054,417L291.932,406.861C299.852,389.959 307.439,372.823 314.959,355.636L315.678,354C322.811,337.696 329.963,321.421 337.382,305.323C339.594,300.522 341.858,295.73 344.222,291L344.285,291C349.822,279.704 355.796,268.697 362.452,258.471C367.364,250.925 372.777,244.201 378.834,238.132C382.401,234.56 386.662,231.674 391.137,229.97L391.171,229.956C394.067,228.823 397.058,228.2 400,228.2C403.211,228.2 406.247,228.927 409.137,230.186L409.182,230.204C413.034,231.809 416.638,234.322 420.1,237.19C426.331,242.354 431.52,249.609 436.332,256.684C443.584,267.324 449.801,279.05 455.66,291L455.723,291C457.876,295.358 459.973,299.752 462.057,304.132C469.627,320.04 476.623,336.383 483.725,352.621L484.332,354L495.301,378.932C498.991,387.22 502.731,395.473 506.569,403.658C508.663,408.127 510.784,412.58 512.953,417L513.49,418.1C519.046,429.46 524.867,440.621 531.125,451.378C536.931,461.365 543.091,470.972 549.765,480L550.122,480.483C553.816,485.473 557.671,490.28 561.709,494.877C572.989,507.707 585.868,517.707 599.833,525.168C611.023,531.151 623.121,534.87 635.201,537.215C634.474,538.631 633.735,540.04 632.979,541.45C573.781,540.159 487.335,538.47 424.521,538.081C425.141,540.282 425.472,542.602 425.472,544.999C425.472,559.073 414.046,570.499 399.972,570.499C385.899,570.499 374.472,559.073 374.472,544.999C374.472,542.602 374.804,540.282 375.423,538.082C312.682,538.474 226.446,540.155 167.291,541.443C166.513,539.993 165.749,538.534 164.998,537.068Z" style="stroke:black;stroke-width:1.44px;"/>
    </g>
    <g transform="matrix(0.693749,0,0,0.693749,894.531,-61.2842)">
        <path d="M164.998,537.068C176.533,534.691 187.862,531.195 198.825,525.849C213.033,518.915 225.592,508.407 237.196,496.113C241.877,491.156 246.315,485.73 250.508,480L250.787,479.622C256.635,471.678 262.028,463.166 267.028,454.566C274.111,442.391 280.782,429.854 287.054,417L291.932,406.861C299.852,389.959 307.439,372.823 314.959,355.636L315.678,354C322.811,337.696 329.963,321.421 337.382,305.323C339.594,300.522 341.858,295.73 344.222,291L344.285,291C349.822,279.704 355.796,268.697 362.452,258.471C367.364,250.925 372.777,244.201 378.834,238.132C382.401,234.56 386.662,231.674 391.137,229.97L391.171,229.956C394.067,228.823 397.058,228.2 400,228.2C403.211,228.2 406.247,228.927 409.137,230.186L409.182,230.204C413.034,231.809 416.638,234.322 420.1,237.19C426.331,242.354 431.52,249.609 436.332,256.684C443.584,267.324 449.801,279.05 455.66,291L455.723,291C457.876,295.358 459.973,299.752 462.057,304.132C469.627,320.04 476.623,336.383 483.725,352.621L484.332,354L495.301,378.932C498.991,387.22 502.731,395.473 506.569,403.658C508.663,408.127 510.784,412.58 512.953,417L513.49,418.1C519.046,429.46 524.867,440.621 531.125,451.378C536.931,461.365 543.091,470.972 549.765,480L550.122,480.483C553.816,485.473 557.671,490.28 561.709,494.877C572.989,507.707 585.868,517.707 599.833,525.168C611.023,531.151 623.121,534.87 635.201,537.215C634.474,538.631 633.735,540.04 632.979,541.45C573.781,540.159 487.335,538.47 424.521,538.081C425.141,540.282 425.472,542.602 425.472,544.999C425.472,559.073 414.046,570.499 399.972,570.499C385.899,570.499 374.472,559.073 374.472,544.999C374.472,542.602 374.804,540.282 375.423,538.082C312.682,538.474 226.446,540.155 167.291,541.443C166.513,539.993 165.749,538.534 164.998,537.068Z" style="stroke:black;stroke-width:1.44px;"/>
    </g>
    <g transform="matrix(1,0,0,1,0,-90)">
        <g transform="matrix(0.693749,0,0,0.693749,-103.281,29.7158)">
            <path d="M330.507,282.737C336.159,271.278 342.265,260.125 349.03,249.733C354.565,241.23 360.672,233.657 367.5,226.817C372.688,221.62 378.927,217.482 385.292,215.058C385.292,215.058 385.326,215.045 385.336,215.041C390.142,213.161 395.117,212.184 400,212.184C405.455,212.184 410.624,213.364 415.284,215.396C415.284,215.396 415.329,215.415 415.342,215.42C420.602,217.612 425.59,220.94 430.319,224.858C437.653,230.935 443.912,239.35 449.566,247.663C456.997,258.565 463.427,270.531 469.451,282.761C469.679,283.13 469.888,283.514 470.083,283.908C472.27,288.336 474.401,292.799 476.519,297.25C484.162,313.311 491.229,329.809 498.386,346.174C498.386,346.174 498.993,347.552 498.992,347.55C498.992,347.55 509.961,372.483 509.932,372.417C513.58,380.61 517.277,388.768 521.072,396.863C523.125,401.245 525.204,405.61 527.331,409.944C527.336,409.954 527.341,409.965 527.347,409.976C527.347,409.976 527.883,411.075 527.877,411.063C533.263,422.076 538.903,432.897 544.972,443.329C550.478,452.8 556.313,461.916 562.644,470.478C562.645,470.481 562.647,470.483 562.649,470.486C562.649,470.486 563.006,470.969 562.994,470.953C566.421,475.583 569.996,480.043 573.737,484.302C583.693,495.625 595.055,504.457 607.384,511.044C617.144,516.262 627.717,519.447 638.253,521.492C643.197,522.452 647.402,525.682 649.604,530.211C651.807,534.741 651.75,540.043 649.451,544.524C648.681,546.026 647.897,547.52 647.096,549.015C644.249,554.329 638.658,557.594 632.63,557.463C578.398,556.279 501.272,554.762 440.457,554.221C436.26,572.702 419.717,586.515 399.972,586.515C380.228,586.515 363.684,572.702 359.488,554.223C298.762,554.765 221.826,556.276 167.639,557.456C161.612,557.587 156.022,554.322 153.174,549.009C152.35,547.471 151.539,545.924 150.743,544.369C148.462,539.917 148.393,534.654 150.556,530.143C152.719,525.632 156.866,522.391 161.766,521.381C172.006,519.272 182.072,516.2 191.801,511.455C204.33,505.341 215.316,495.961 225.551,485.116C229.784,480.634 233.792,475.723 237.584,470.541C237.596,470.525 237.608,470.508 237.621,470.491C237.621,470.491 237.899,470.113 237.889,470.128C243.398,462.644 248.471,454.619 253.184,446.512C260.072,434.671 266.56,422.478 272.621,410.056C272.621,410.056 277.5,399.917 277.429,400.065C285.292,383.287 292.821,366.277 300.286,349.216C300.29,349.206 300.294,349.196 300.299,349.187C300.299,349.187 301.018,347.551 301.005,347.581C308.179,331.181 315.374,314.812 322.835,298.622C325.118,293.667 327.456,288.722 329.895,283.841C330.084,283.462 330.287,283.093 330.507,282.737ZM164.998,537.068C176.533,534.691 187.862,531.195 198.825,525.849C213.033,518.915 225.592,508.407 237.196,496.113C241.877,491.156 246.315,485.73 250.508,480L250.787,479.622C256.635,471.678 262.028,463.166 267.028,454.566C274.111,442.391 280.782,429.854 287.054,417L291.932,406.861C299.852,389.959 307.439,372.823 314.959,355.636L315.678,354C322.811,337.696 329.963,321.421 337.382,305.323C339.594,300.522 341.858,295.73 344.222,291L344.285,291C349.822,279.704 355.796,268.697 362.452,258.471C367.364,250.925 372.777,244.201 378.834,238.132C382.401,234.56 386.662,231.674 391.137,229.97L391.171,229.956C394.067,228.823 397.058,228.2 400,228.2C403.211,228.2 406.247,228.927 409.137,230.186L409.182,230.204C413.034,231.809 416.638,234.322 420.1,237.19C426.331,242.354 431.52,249.609 436.332,256.684C443.584,267.324 449.801,279.05 455.66,291L455.723,291C457.876,295.358 459.973,299.752 462.057,304.132C469.627,320.04 476.623,336.383 483.725,352.621L484.332,354L495.301,378.932C498.991,387.22 502.731,395.473 506.569,403.658C508.663,408.127 510.784,412.58 512.953,417L513.49,418.1C519.046,429.46 524.867,440.621 531.125,451.378C536.931,461.365 543.091,470.972 549.765,480L550.122,480.483C553.816,485.473 557.671,490.28 561.709,494.877C572.989,507.707 585.868,517.707 599.833,525.168C611.023,531.151 623.121,534.87 635.201,537.215C634.474,538.631 633.735,540.04 632.979,541.45C573.781,540.159 487.335,538.47 424.521,538.081C425.141,540.282 425.472,542.602 425.472,544.999C425.472,559.073 414.046,570.499 399.972,570.499C385.899,570.499 374.472,559.073 374.472,544.999C374.472,542.602 374.804,540.282 375.423,538.082C312.682,538.474 226.446,540.155 167.291,541.443C166.513,539.993 165.749,538.534 164.998,537.068Z"/>
        </g>
        <g transform="matrix(0.693749,0,0,0.693749,-103.281,29.7158)">
            <path d="M164.998,537.068C176.533,534.691 187.862,531.195 198.825,525.849C213.033,518.915 225.592,508.407 237.196,496.113C241.877,491.156 246.315,485.73 250.508,480L250.787,479.622C256.635,471.678 262.028,463.166 267.028,454.566C274.111,442.391 280.782,429.854 287.054,417L291.932,406.861C299.852,389.959 307.439,372.823 314.959,355.636L315.678,354C322.811,337.696 329.963,321.421 337.382,305.323C339.594,300.522 341.858,295.73 344.222,291L344.285,291C349.822,279.704 355.796,268.697 362.452,258.471C367.364,250.925 372.777,244.201 378.834,238.132C382.401,234.56 386.662,231.674 391.137,229.97L391.171,229.956C394.067,228.823 397.058,228.2 400,228.2C403.211,228.2 406.247,228.927 409.137,230.186L409.182,230.204C413.034,231.809 416.638,234.322 420.1,237.19C426.331,242.354 431.52,249.609 436.332,256.684C443.584,267.324 449.801,279.05 455.66,291L455.723,291C457.876,295.358 459.973,299.752 462.057,304.132C469.627,320.04 476.623,336.383 483.725,352.621L484.332,354L495.301,378.932C498.991,387.22 502.731,395.473 506.569,403.658C508.663,408.127 510.784,412.58 512.953,417L513.49,418.1C519.046,429.46 524.867,440.621 531.125,451.378C536.931,461.365 543.091,470.972 549.765,480L550.122,480.483C553.816,485.473 557.671,490.28 561.709,494.877C572.989,507.707 585.868,517.707 599.833,525.168C611.023,531.151 623.121,534.87 635.201,537.215C634.474,538.631 633.735,540.04 632.979,541.45C573.781,540.159 487.335,538.47 424.521,538.081C425.141,540.282 425.472,542.602 425.472,544.999C425.472,559.073 414.046,570.499 399.972,570.499C385.899,570.499 374.472,559.073 374.472,544.999C374.472,542.602 374.804,540.282 375.423,538.082C312.682,538.474 226.446,540.155 167.291,541.443C166.513,539.993 165.749,538.534 164.998,537.068ZM441.881,299.156C441.665,298.799 441.465,298.43 441.28,298.05C435.76,286.792 429.931,275.729 423.089,265.691C419.129,259.869 415.009,253.772 409.882,249.523C407.685,247.703 405.466,246.007 403.035,244.994L402.741,244.869C401.87,244.49 400.968,244.216 400,244.216C398.998,244.216 397.992,244.486 397.016,244.868C397.016,244.868 396.982,244.881 396.837,244.937C394.397,245.866 392.114,247.5 390.17,249.446C384.882,254.745 380.163,260.621 375.875,267.208C369.566,276.901 363.914,287.342 358.666,298.05C358.471,298.447 358.261,298.834 358.032,299.207C355.928,303.444 353.907,307.73 351.927,312.027C344.552,328.03 337.442,344.21 330.352,360.419C330.348,360.429 330.343,360.439 330.339,360.449C330.339,360.449 329.619,362.085 329.632,362.055C322.057,379.37 314.413,396.631 306.434,413.657C306.411,413.707 306.388,413.756 306.364,413.805C306.364,413.805 301.486,423.944 301.448,424.023C295.004,437.23 288.149,450.11 280.874,462.615C275.585,471.713 269.872,480.712 263.686,489.116C263.682,489.121 263.679,489.126 263.675,489.131C263.675,489.131 263.396,489.509 263.433,489.459C258.839,495.737 253.969,501.678 248.843,507.106C243.038,513.257 237.002,518.984 230.676,524.128C279.174,523.194 332.671,522.333 375.323,522.067C380.356,522.035 385.11,524.371 388.161,528.374C391.212,532.376 392.204,537.58 390.84,542.424C390.609,543.243 390.488,544.107 390.488,544.999C390.488,550.233 394.738,554.483 399.972,554.483C405.207,554.483 409.456,550.233 409.456,544.999C409.456,544.107 409.335,543.242 409.105,542.422C407.74,537.578 408.732,532.375 411.783,528.372C414.833,524.37 419.588,522.034 424.62,522.065C467.247,522.329 520.743,523.191 569.242,524.125C562.34,518.625 555.797,512.41 549.676,505.447C545.346,500.517 541.211,495.364 537.25,490.013C537.246,490.008 537.242,490.003 537.238,489.997C537.238,489.997 536.881,489.514 536.887,489.522C529.868,480.028 523.384,469.929 517.281,459.431C510.832,448.344 504.828,436.845 499.102,425.136C499.1,425.132 499.098,425.128 499.097,425.124C499.097,425.124 498.56,424.024 498.575,424.056C496.363,419.55 494.2,415.009 492.068,410.457C488.186,402.178 484.402,393.83 480.67,385.447C480.66,385.426 480.65,385.404 480.641,385.382L469.672,360.45L469.052,359.04C462.017,342.957 455.093,326.77 447.596,311.015C445.713,307.06 443.821,303.094 441.881,299.156Z"/>
        </g>
        <g transform="matrix(0.693749,0,0,0.693749,-103.281,29.7158)">
            <path d="M164.998,537.068C176.533,534.691 187.862,531.195 198.825,525.849C213.033,518.915 225.592,508.407 237.196,496.113C241.877,491.156 246.315,485.73 250.508,480L250.787,479.622C256.635,471.678 262.028,463.166 267.028,454.566C274.111,442.391 280.782,429.854 287.054,417L291.932,406.861C299.852,389.959 307.439,372.823 314.959,355.636L315.678,354C322.811,337.696 329.963,321.421 337.382,305.323C339.594,300.522 341.858,295.73 344.222,291L344.285,291C349.822,279.704 355.796,268.697 362.452,258.471C367.364,250.925 372.777,244.201 378.834,238.132C382.401,234.56 386.662,231.674 391.137,229.97L391.171,229.956C394.067,228.823 397.058,228.2 400,228.2C403.211,228.2 406.247,228.927 409.137,230.186L409.182,230.204C413.034,231.809 416.638,234.322 420.1,237.19C426.331,242.354 431.52,249.609 436.332,256.684C443.584,267.324 449.801,279.05 455.66,291L455.723,291C457.876,295.358 459.973,299.752 462.057,304.132C469.627,320.04 476.623,336.383 483.725,352.621L484.332,354L495.301,378.932C498.991,387.22 502.731,395.473 506.569,403.658C508.663,408.127 510.784,412.58 512.953,417L513.49,418.1C519.046,429.46 524.867,440.621 531.125,451.378C536.931,461.365 543.091,470.972 549.765,480L550.122,480.483C553.816,485.473 557.671,490.28 561.709,494.877C572.989,507.707 585.868,517.707 599.833,525.168C611.023,531.151 623.121,534.87 635.201,537.215C634.474,538.631 633.735,540.04 632.979,541.45C573.781,540.159 487.335,538.47 424.521,538.081C425.141,540.282 425.472,542.602 425.472,544.999C425.472,559.073 414.046,570.499 399.972,570.499C385.899,570.499 374.472,559.073 374.472,544.999C374.472,542.602 374.804,540.282 375.423,538.082C312.682,538.474 226.446,540.155 167.291,541.443C166.513,539.993 165.749,538.534 164.998,537.068ZM441.37,298.107L441.28,298.05C435.76,286.792 429.931,275.729 423.089,265.691C419.129,259.869 415.009,253.772 409.882,249.523C407.685,247.703 405.466,246.007 403.035,244.994L402.741,244.869C401.87,244.49 400.968,244.216 400,244.216C398.998,244.216 397.992,244.486 397.016,244.868C397.016,244.868 396.982,244.881 396.837,244.937C394.397,245.866 392.114,247.5 390.17,249.446C384.882,254.745 380.163,260.621 375.875,267.208C369.566,276.901 363.914,287.342 358.666,298.05L351.618,302.444L358.549,298.159C356.261,302.738 354.07,307.376 351.927,312.027C344.552,328.03 337.442,344.21 330.352,360.419L330.339,360.449C330.339,360.449 329.619,362.085 329.632,362.055C322.057,379.37 314.413,396.631 306.434,413.657L306.364,413.805C306.364,413.805 301.486,423.944 301.448,424.023C295.004,437.23 288.149,450.11 280.874,462.615C275.585,471.713 269.872,480.712 263.686,489.116L263.675,489.131C263.675,489.131 263.396,489.509 263.433,489.459C258.839,495.737 253.969,501.678 248.843,507.106C243.038,513.257 237.002,518.984 230.676,524.128C279.174,523.194 332.671,522.333 375.323,522.067L390.84,542.424C390.609,543.243 390.488,544.107 390.488,544.999C390.488,550.233 394.738,554.483 399.972,554.483C405.207,554.483 409.456,550.233 409.456,544.999C409.456,544.107 409.335,543.242 409.105,542.422L424.62,522.065C467.247,522.329 520.743,523.191 569.242,524.125C562.34,518.625 555.797,512.41 549.676,505.447C545.346,500.517 541.211,495.364 537.25,490.013L537.238,489.997C537.238,489.997 536.881,489.514 536.887,489.522C529.868,480.028 523.384,469.929 517.281,459.431C510.832,448.344 504.828,436.845 499.102,425.136L499.097,425.124C499.097,425.124 498.56,424.024 498.575,424.056C496.363,419.55 494.2,415.009 492.068,410.457C488.186,402.178 484.402,393.83 480.67,385.447L480.641,385.382L469.672,360.45L469.052,359.04C462.017,342.957 455.093,326.77 447.596,311.015C445.547,306.709 443.486,302.391 441.37,298.107Z"/>
        </g>
    </g>
    <g transform="matrix(0.718871,0,0,0.700121,812.985,61.4388)">
        <g transform="matrix(1.39107,-0,-0,1.42832,-1130.92,-87.7546)">
            <circle cx="961.998" cy="415" r="41.667"/>
            <circle cx="2764" cy="415" r="41.667"/>
            <path d="M961.998,415L2764,415" style="fill:none;stroke:black;stroke-width:27.78px;"/>
        </g>
    </g>
    <g transform="matrix(0.314639,0,0,1.01403,108.067,-97.0854)">
        <g transform="matrix(3.17824,-0,-0,0.986164,-343.463,95.7421)">
            <circle cx="173.288" cy="415" r="41.667"/>
            <circle cx="961.998" cy="415" r="41.667"/>
            <path d="M173.288,415L961.998,415" style="fill:none;stroke:black;stroke-width:27.78px;stroke-dasharray:55.56,55.56,0,0;"/>
        </g>
    </g>
</svg>
